# xmcd
#
# Track frame offsets: 
#        150
#        7175
#        23941
#        40476
#        53376
#        63383
#        73237
#        85203
#        99690
#        119169
#
# Disc length: 1736 seconds
#
# Revision: 0
# Processed by: cddbd v1.5.2PL0 Copyright (c) Steve Scherf et al.
# Submitted via: ExactAudioCopy v1.3
#
DISCID=8e06c60a
DTITLE=Whiskeydick - The Wicked Roots
DYEAR=2012
DGENRE=Heavy Metal Honky Tonk
TTITLE0=Shootin' Guns
TTITLE1=Murder Love Song
TTITLE2=The Ugly Tree
TTITLE3=Full of Vigor and Drunk on Ale
TTITLE4=Evil's Got A Hold of Me
TTITLE5=The Wicked Roots
TTITLE6=Day of the Dead
TTITLE7=Horse made of Acid
TTITLE8=I've Got A Woman
TTITLE9=Hillbilly Toast
EXTD=
EXTT0=
EXTT1=
EXTT2=
EXTT3=
EXTT4=
EXTT5=
EXTT6=
EXTT7=
EXTT8=
EXTT9=
PLAYORDER=
